<svg width="116" height="96" viewBox="0 0 116 96" fill="none" xmlns="http://www.w3.org/2000/svg">
<path d="M54 26C54 26.2652 53.8946 26.5196 53.7071 26.7071C53.5196 26.8946 53.2652 27 53 27H47C46.4736 26.9997 45.9564 26.8608 45.5006 26.5974C45.0448 26.334 44.6664 25.9552 44.4033 25.4992C44.1402 25.0432 44.0018 24.526 44.0018 23.9995C44.0019 23.4731 44.1405 22.9559 44.4038 22.5L48.69 15.0938L46.9338 15.5625C46.8065 15.5965 46.6739 15.6051 46.5433 15.5878C46.4128 15.5705 46.2869 15.5277 46.173 15.4617C45.9428 15.3286 45.7749 15.1094 45.7063 14.8525C45.6376 14.5956 45.6739 14.3219 45.807 14.0917C45.9402 13.8615 46.1593 13.6936 46.4163 13.625L50.5125 12.5288C50.6394 12.4947 50.7717 12.486 50.902 12.5032C51.0322 12.5203 51.1578 12.563 51.2716 12.6287C51.3854 12.6944 51.4851 12.7819 51.565 12.8861C51.6449 12.9904 51.7036 13.1093 51.7375 13.2362L52.8363 17.3325C52.871 17.46 52.8801 17.5931 52.863 17.7241C52.846 17.8551 52.8032 17.9814 52.7371 18.0958C52.6709 18.2102 52.5828 18.3103 52.4777 18.3904C52.3727 18.4705 52.2528 18.529 52.125 18.5625C52.0401 18.5846 51.9527 18.5959 51.865 18.5963C51.645 18.596 51.4312 18.5233 51.2568 18.3893C51.0823 18.2553 50.9569 18.0675 50.9 17.855L50.425 16.0863L46.1388 23.5C46.0512 23.6517 46.005 23.8237 46.0048 23.9988C46.0046 24.1739 46.0504 24.3461 46.1376 24.4979C46.2248 24.6498 46.3503 24.7761 46.5017 24.8642C46.653 24.9524 46.8249 24.9992 47 25H53C53.2652 25 53.5196 25.1054 53.7071 25.2929C53.8946 25.4804 54 25.7348 54 26ZM71.5913 22.5L68.6988 17.5C68.5604 17.2823 68.3433 17.1266 68.0928 17.0652C67.8422 17.0038 67.5777 17.0416 67.3544 17.1707C67.1311 17.2998 66.9663 17.5101 66.8944 17.7579C66.8226 18.0056 66.8492 18.2715 66.9688 18.5L69.8613 23.5C69.9488 23.6517 69.995 23.8237 69.9952 23.9988C69.9954 24.1739 69.9497 24.3461 69.8625 24.4979C69.7753 24.6498 69.6497 24.7761 69.4983 24.8642C69.347 24.9524 69.1751 24.9992 69 25H60.4138L61.7063 23.7075C61.8939 23.52 61.9994 23.2657 61.9995 23.0004C61.9996 22.7352 61.8944 22.4808 61.7069 22.2931C61.5194 22.1055 61.2651 22 60.9998 21.9999C60.7346 21.9998 60.4801 22.105 60.2925 22.2925L57.2925 25.2925C57.1995 25.3854 57.1258 25.4957 57.0754 25.6171C57.0251 25.7385 56.9992 25.8686 56.9992 26C56.9992 26.1314 57.0251 26.2615 57.0754 26.3829C57.1258 26.5043 57.1995 26.6146 57.2925 26.7075L60.2925 29.7075C60.3854 29.8003 60.4957 29.8739 60.6171 29.9242C60.7384 29.9744 60.8685 30.0002 60.9998 30.0001C61.1312 30.0001 61.2612 29.9741 61.3825 29.9238C61.5038 29.8735 61.6141 29.7998 61.7069 29.7069C61.7997 29.614 61.8733 29.5037 61.9235 29.3823C61.9737 29.261 61.9996 29.1309 61.9995 28.9996C61.9994 28.8682 61.9735 28.7382 61.9232 28.6169C61.8729 28.4955 61.7992 28.3853 61.7063 28.2925L60.4138 27H69C69.5265 26.9997 70.0436 26.8608 70.4994 26.5974C70.9552 26.334 71.3336 25.9552 71.5967 25.4992C71.8598 25.0432 71.9983 24.526 71.9982 23.9995C71.9981 23.4731 71.8595 22.9559 71.5963 22.5H71.5913ZM58 4C58.1758 3.99824 58.3487 4.04371 58.5009 4.13167C58.6531 4.21962 58.7788 4.34683 58.865 4.5L63.1513 11.9062L61.3913 11.4338C61.1382 11.3744 60.872 11.4158 60.649 11.5493C60.426 11.6829 60.2638 11.898 60.1967 12.149C60.1295 12.4001 60.1628 12.6675 60.2894 12.8945C60.4161 13.1215 60.6261 13.2902 60.875 13.365L64.9725 14.4637C65.057 14.4859 65.1439 14.4973 65.2313 14.4975C65.4512 14.4973 65.665 14.4246 65.8395 14.2905C66.0139 14.1565 66.1393 13.9687 66.1963 13.7563L67.295 9.6575C67.3327 9.52953 67.3445 9.39531 67.3295 9.26274C67.3146 9.13016 67.2732 9.00192 67.208 8.88556C67.1427 8.76921 67.0548 8.66708 66.9495 8.58521C66.8442 8.50334 66.7235 8.44337 66.5946 8.40884C66.4658 8.37431 66.3313 8.36591 66.1991 8.38414C66.067 8.40238 65.9398 8.44687 65.8251 8.51501C65.7104 8.58314 65.6105 8.67354 65.5313 8.78087C65.452 8.88821 65.3951 9.01032 65.3638 9.14L64.8888 10.9113L60.5963 3.5C60.3327 3.0448 59.9541 2.66689 59.4984 2.40417C59.0427 2.14145 58.526 2.00316 58 2.00316C57.474 2.00316 56.9573 2.14145 56.5016 2.40417C56.0459 2.66689 55.6673 3.0448 55.4038 3.5L52.5088 8.5C52.3844 8.72906 52.3543 8.99764 52.4251 9.24852C52.4958 9.4994 52.6617 9.71275 52.8874 9.84312C53.1131 9.9735 53.3808 10.0106 53.6334 9.9465C53.8861 9.88241 54.1037 9.7222 54.24 9.5L57.135 4.5C57.2212 4.34683 57.3469 4.21962 57.4991 4.13167C57.6513 4.04371 57.8243 3.99824 58 4Z" fill="#343330"/>
<path d="M114.954 36.9863C114.939 36.7416 114.836 36.5107 114.663 36.3374C114.489 36.1642 114.258 36.0605 114.014 36.0463C107.544 35.6713 102.349 37.6387 100.116 41.3237C98.6412 43.76 98.6437 46.7188 100.096 49.5413C99.2695 50.5254 98.6653 51.6767 98.325 52.9163L96.2912 50.875C97.2687 48.8337 97.2312 46.7063 96.1662 44.9388C94.5162 42.215 90.7075 40.755 85.9787 41.0325C85.7341 41.0468 85.5032 41.1504 85.3299 41.3237C85.1567 41.497 85.053 41.7279 85.0387 41.9725C84.76 46.7013 86.2212 50.51 88.945 52.16C89.8438 52.7092 90.8767 52.9998 91.93 53C92.9524 52.9874 93.9588 52.7452 94.875 52.2913L98 55.4163V59C98 59.2652 98.1054 59.5196 98.2929 59.7071C98.4804 59.8946 98.7348 60 99 60C99.2652 60 99.5196 59.8946 99.7071 59.7071C99.8946 59.5196 100 59.2652 100 59V55.3137C99.9955 53.7229 100.537 52.1786 101.534 50.9387C102.82 51.6109 104.246 51.9706 105.697 51.9888C107.1 51.9933 108.477 51.61 109.676 50.8813C113.361 48.6513 115.334 43.4562 114.954 36.9863ZM89.9762 50.45C88.0587 49.2888 86.9737 46.54 87 43C90.54 42.97 93.2887 44.0588 94.45 45.9762C95.0562 46.9762 95.155 48.1425 94.7575 49.3438L91.7062 46.2925C91.5172 46.1129 91.2654 46.0142 91.0047 46.0176C90.7439 46.0209 90.4948 46.126 90.3104 46.3104C90.126 46.4948 90.0209 46.7439 90.0176 47.0047C90.0142 47.2654 90.1129 47.5172 90.2925 47.7063L93.3437 50.7575C92.1425 51.155 90.9775 51.0563 89.9762 50.45ZM108.64 49.1725C106.965 50.1863 104.996 50.2638 102.996 49.4225L109.707 42.71C109.887 42.5209 109.986 42.2692 109.982 42.0084C109.979 41.7477 109.874 41.4985 109.69 41.3141C109.505 41.1297 109.256 41.0246 108.995 41.0213C108.735 41.018 108.483 41.1166 108.294 41.2963L101.581 48C100.736 46 100.812 44.03 101.831 42.3562C103.574 39.4812 107.706 37.8788 112.997 38.0025C113.117 43.2925 111.517 47.43 108.64 49.1725Z" fill="#343330"/>
<path d="M4.29124 39.71C4.19789 39.6171 4.12382 39.5066 4.07327 39.385C4.02272 39.2634 3.9967 39.133 3.9967 39.0013C3.9967 38.8695 4.02272 38.7391 4.07327 38.6175C4.12382 38.4959 4.19789 38.3854 4.29124 38.2925C4.38749 38.1987 6.63749 36 11 36C13.3025 36 15.03 37.1512 16.555 38.1675C17.9675 39.11 19.3025 40 21 40C22.3706 40.0205 23.7278 39.7285 24.9687 39.1462C25.45 38.9242 25.8974 38.6351 26.2975 38.2875C26.3907 38.195 26.5013 38.1218 26.6228 38.072C26.7444 38.0222 26.8745 37.9969 27.0058 37.9974C27.1372 37.9979 27.2671 38.0243 27.3883 38.075C27.5094 38.1258 27.6194 38.1999 27.7119 38.2931C27.8044 38.3864 27.8776 38.4969 27.9274 38.6184C27.9772 38.74 28.0025 38.8701 28.002 39.0015C28.0015 39.1328 27.9751 39.2628 27.9243 39.3839C27.8736 39.505 27.7995 39.615 27.7062 39.7075C27.6125 39.8013 25.3625 42 21 42C18.6975 42 16.97 40.8488 15.445 39.8325C14.0325 38.89 12.6975 38 11 38C9.62941 37.9795 8.27217 38.2715 7.03124 38.8538C6.54998 39.0758 6.10261 39.3649 5.70249 39.7125C5.51475 39.8988 5.26084 40.0031 4.99635 40.0027C4.73186 40.0022 4.47833 39.897 4.29124 39.71ZM26.2975 45.2875C25.8974 45.6351 25.45 45.9242 24.9687 46.1462C23.7278 46.7285 22.3706 47.0205 21 47C19.3025 47 17.9675 46.11 16.555 45.1675C15.03 44.1512 13.3025 43 11 43C6.63749 43 4.38749 45.1987 4.29374 45.2925C4.10544 45.4793 3.99906 45.7333 3.99801 45.9985C3.99695 46.2638 4.10131 46.5186 4.28812 46.7069C4.47493 46.8952 4.72889 47.0016 4.99414 47.0026C5.25939 47.0037 5.51419 46.8993 5.70249 46.7125C6.10261 46.3649 6.54998 46.0758 7.03124 45.8538C8.27217 45.2715 9.62941 44.9795 11 45C12.6975 45 14.0325 45.89 15.445 46.8325C16.97 47.8488 18.695 49 21 49C25.3625 49 27.6125 46.8013 27.7062 46.7075C27.7995 46.615 27.8736 46.505 27.9243 46.3839C27.9751 46.2628 28.0015 46.1328 28.002 46.0015C28.0025 45.8701 27.9772 45.74 27.9274 45.6184C27.8776 45.4969 27.8044 45.3864 27.7119 45.2931C27.6194 45.1999 27.5094 45.1258 27.3883 45.075C27.2671 45.0243 27.1372 44.9979 27.0058 44.9974C26.8745 44.9969 26.7444 45.0222 26.6228 45.072C26.5013 45.1218 26.3907 45.195 26.2975 45.2875ZM26.2975 52.2875C25.8974 52.6351 25.45 52.9242 24.9687 53.1462C23.7278 53.7285 22.3706 54.0205 21 54C19.3025 54 17.9675 53.11 16.555 52.1675C15.03 51.1512 13.3025 50 11 50C6.63749 50 4.38749 52.1987 4.29374 52.2925C4.10544 52.4793 3.99906 52.7333 3.99801 52.9985C3.99695 53.2638 4.10131 53.5186 4.28812 53.7069C4.47493 53.8952 4.72889 54.0016 4.99414 54.0026C5.25939 54.0037 5.51419 53.8993 5.70249 53.7125C6.10261 53.3649 6.54998 53.0758 7.03124 52.8538C8.27217 52.2715 9.62941 51.9795 11 52C12.6975 52 14.0325 52.89 15.445 53.8325C16.97 54.8488 18.695 56 21 56C25.3625 56 27.6125 53.8013 27.7062 53.7075C27.8945 53.5207 28.0009 53.2667 28.002 53.0015C28.003 52.7362 27.8987 52.4814 27.7119 52.2931C27.5251 52.1048 27.2711 51.9984 27.0058 51.9974C26.7406 51.9963 26.4858 52.1007 26.2975 52.2875Z" fill="#343330"/>
<path d="M58 67C55.4288 67 52.9154 67.7624 50.7776 69.1909C48.6398 70.6194 46.9735 72.6497 45.9896 75.0251C45.0056 77.4006 44.7482 80.0144 45.2498 82.5362C45.7514 85.0579 46.9895 87.3743 48.8076 89.1924C50.6257 91.0105 52.9421 92.2486 55.4638 92.7502C57.9856 93.2518 60.5995 92.9944 62.9749 92.0104C65.3503 91.0265 67.3807 89.3603 68.8091 87.2224C70.2376 85.0846 71 82.5712 71 80C70.9964 76.5533 69.6256 73.2488 67.1884 70.8116C64.7512 68.3744 61.4467 67.0036 58 67ZM69 80C69.0011 81.4112 68.7295 82.8094 68.2 84.1175L62.6125 80.6812C62.3749 80.5347 62.1092 80.4397 61.8325 80.4025L58.98 80.0175C58.5869 79.9662 58.1875 80.0321 57.8317 80.2069C57.476 80.3817 57.1797 80.6576 56.98 81H55.89L55.415 80.0175C55.2837 79.7439 55.0915 79.504 54.8532 79.3162C54.6148 79.1283 54.3367 78.9975 54.04 78.9338L53.04 78.7175L54.0175 77H56.1063C56.4442 76.9993 56.7766 76.9133 57.0725 76.75L58.6038 75.905C58.7383 75.83 58.8641 75.7403 58.9788 75.6375L62.3425 72.595C62.6798 72.2928 62.9039 71.8846 62.978 71.4378C63.0521 70.9911 62.9717 70.5324 62.75 70.1375L62.705 70.0563C64.5873 70.9487 66.1778 72.3567 67.292 74.1168C68.4063 75.8769 68.9985 77.9169 69 80ZM59.9138 69.1675L61 71.1125L57.6363 74.155L56.1063 75H54.0175C53.6659 74.9995 53.3204 75.0916 53.0158 75.2672C52.7112 75.4428 52.4583 75.6955 52.2825 76L51.1913 77.9038L49.9225 74.5238L51.29 71.29C52.5004 70.3547 53.8929 69.6826 55.3781 69.3167C56.8633 68.9508 58.4086 68.8991 59.915 69.165L59.9138 69.1675ZM47 80C46.9983 78.365 47.3631 76.7505 48.0675 75.275L49.485 79.0588C49.6031 79.372 49.798 79.6506 50.0518 79.869C50.3056 80.0874 50.6101 80.2386 50.9375 80.3088L53.6163 80.885L54.0925 81.875C54.2578 82.2117 54.5139 82.4955 54.832 82.6943C55.1501 82.8931 55.5174 82.999 55.8925 83H56.0775L55.1738 85.0287C55.0145 85.386 54.9635 85.782 55.0271 86.168C55.0906 86.5539 55.2659 86.9127 55.5313 87.2L55.5488 87.2175L58 89.7425L57.7575 90.9925C54.8848 90.9256 52.152 89.7387 50.1422 87.685C48.1324 85.6313 47.0048 82.8735 47 80ZM59.8225 90.8475L59.9638 90.1213C60.0218 89.8127 60.0068 89.4949 59.92 89.1931C59.8332 88.8914 59.6769 88.6142 59.4638 88.3838C59.4576 88.3782 59.4518 88.3724 59.4463 88.3662L57 85.8425L58.7125 82L61.565 82.385L67.28 85.9C66.452 87.2003 65.3605 88.3125 64.076 89.1647C62.7914 90.0169 61.3424 90.5902 59.8225 90.8475Z" fill="#343330"/>
</svg>
